<svg width="228" height="98" xmlns="http://www.w3.org/2000/svg" xmlns:xlink="http://www.w3.org/1999/xlink" xml:space="preserve" overflow="hidden"><g transform="translate(-774 -108)"><g><g><g><g><path d="M45.8325 21.3613 33.6743 9.20366 21.5162 21.3611 16.9144 16.7599 33.6744 0 50.4345 16.7602Z" fill="#44B8F3" fill-rule="nonzero" fill-opacity="1" transform="matrix(1 0 0 1.00489 775 108.037)"/><path d="M0.000419249 25.634 24.5701 25.6342 24.57 32.561 7.40045 32.5609 7.40036 40.9683 22.2021 40.9684 22.202 47.9545 7.40028 47.9545 7.4002 56.5978 24.5697 56.5978 24.5697 63.5843 0 63.5839 0.000419249 25.634ZM30.0571 22.851 37.2807 22.8511 37.2803 58.1802 37.2802 63.5843 30.0566 63.5843 30.0571 22.851ZM41.696 49.4339C41.696 41.1466 47.8544 34.3964 56.0246 34.3964 64.1354 34.3965 70.2921 40.6721 70.2921 48.842 70.2921 49.7309 70.2327 50.7368 70.1139 51.2116L49.0975 51.2112C49.8065 55.1769 52.8273 58.0195 57.2083 58.0195 60.0493 58.0195 62.4766 56.7764 64.135 55.0597L67.8648 59.9733C65.7329 62.4599 61.7078 64.4137 56.9114 64.4137 48.0899 64.4137 41.6956 57.6631 41.696 49.4339ZM49.2146 46.6523 62.8919 46.6523C62.0625 42.626 59.5168 40.5533 56.1417 40.5533 52.5307 40.5533 50.044 43.0413 49.2146 46.6523ZM101.036 35.2261 90.7927 63.5847 81.4387 63.5847 71.1373 35.2259 79.0712 35.2259 86.2933 57.1311 93.6357 35.226 101.036 35.2261ZM123.848 60.5066C121.776 62.9334 118.875 64.4141 115.205 64.4141 107.686 64.4141 101.587 58.2558 101.587 49.4343 101.587 40.8504 107.33 34.3968 115.205 34.3969 118.935 34.3969 121.836 35.7589 123.849 38.0673L123.849 35.2263 131.13 35.2263 131.13 63.5851 123.848 63.5847 123.848 60.5066ZM123.849 49.3753C123.849 44.8178 120.711 41.2051 116.389 41.205 112.008 41.205 108.811 44.8174 108.811 49.3749 108.811 53.9342 112.008 57.6046 116.389 57.6046 120.711 57.6046 123.849 53.9342 123.849 49.3753ZM144.047 63.5851 136.824 63.5851 136.824 35.2264 144.048 35.2265 144.048 38.0081C145.824 35.6997 148.548 34.3971 152.04 34.3972 158.612 34.3972 162.815 39.0157 162.815 46.4156L162.815 63.5851 155.593 63.5851 155.593 47.4822C155.593 43.634 153.342 41.2053 149.85 41.2053 146.237 41.2053 144.048 43.634 144.048 47.4822L144.047 63.5851ZM181.916 41.2056C177.18 41.2055 173.983 44.8182 173.983 49.3753 173.983 53.9346 177.24 57.605 181.857 57.605 184.758 57.605 187.067 56.599 188.843 54.8234L192.513 60.1511C190.264 62.639 186.18 64.4146 181.68 64.4146 173.272 64.4146 166.76 57.6644 166.76 49.4347 166.76 41.1476 173.273 34.3974 181.562 34.3974 186.416 34.3974 190.264 36.0562 192.751 38.6598L188.607 43.8106C186.83 42.0944 184.699 41.2056 181.916 41.2056ZM194.47 49.4352C194.47 41.1478 200.627 34.3976 208.799 34.3976 216.91 34.3977 223.066 40.6733 223.066 48.8433 223.066 49.7321 223.007 50.7377 222.888 51.2128L201.872 51.2124C202.581 55.1781 205.601 58.0207 209.982 58.0207 212.823 58.0207 215.251 56.7776 216.909 55.061L220.639 59.9745C218.507 62.4612 214.482 64.415 209.686 64.415 200.864 64.415 194.47 57.6644 194.47 49.4352ZM201.989 46.6536 215.666 46.6536C214.837 42.6272 212.291 40.5545 208.916 40.5545 205.305 40.5544 202.818 43.0426 201.989 46.6536ZM126.139 86.2297 115.674 86.2293 115.673 96.8916 110.719 96.8912 110.72 71.485 115.674 71.485 115.674 81.592 126.139 81.5924 126.14 71.4854 131.135 71.4854 131.134 96.8916 126.139 96.8916 126.139 86.2297ZM134.282 87.4184C134.283 81.8707 138.404 77.3513 143.875 77.3517 149.305 77.3517 153.427 81.5529 153.427 87.0226 153.427 87.6178 153.387 88.2911 153.307 88.6088L139.237 88.6088C139.712 91.2633 141.734 93.1664 144.667 93.1664 146.569 93.1668 148.194 92.3344 149.304 91.1852L151.801 94.4747C150.374 96.1394 147.68 97.4473 144.469 97.4473 138.563 97.4473 134.282 92.928 134.282 87.4184ZM139.316 85.5564 148.472 85.5569C147.917 82.8608 146.213 81.4736 143.953 81.4736 141.536 81.4736 139.871 83.1391 139.316 85.5564ZM170.776 94.8319C169.389 96.4567 167.447 97.4478 164.99 97.4478 159.956 97.4478 155.873 93.3246 155.873 87.4193 155.874 81.6725 159.719 77.3521 164.991 77.3521 167.487 77.3521 169.429 78.2638 170.777 79.8093L170.777 77.9074 175.652 77.9074 175.651 96.8929 170.776 96.8924 170.776 94.8319ZM170.777 87.3798C170.777 84.3287 168.676 81.9101 165.783 81.9101 162.85 81.9097 160.71 84.3283 160.71 87.3794 160.709 90.4318 162.85 92.8889 165.783 92.8889 168.676 92.8889 170.777 90.4318 170.777 87.3798ZM179.761 69.623 184.597 69.6234 184.596 94.1865 184.596 96.8929 179.76 96.8929 179.761 69.623ZM187.835 77.9079 191.204 77.9079 191.204 72.9935 196.04 72.9935 196.04 77.9079 201.192 77.9079 201.192 82.1888 196.079 82.1888 196.078 90.2349C196.078 92.0184 196.832 92.8893 198.259 92.8898 199.131 92.8898 200.003 92.4931 200.479 91.939L202.658 95.5455C201.588 96.5764 199.805 97.4486 197.466 97.4486 193.621 97.4482 191.164 95.0296 191.164 90.3923L191.164 82.1884 187.835 82.1884 187.835 77.9079ZM210.481 96.8933 205.645 96.8933 205.646 69.6238 210.482 69.6238 210.482 79.7707C211.671 78.2252 213.494 77.353 215.832 77.353 220.232 77.3534 223.046 80.4452 223.046 85.3994L223.046 96.8937 218.21 96.8937 218.211 86.1134C218.211 83.537 216.704 81.911 214.366 81.911 211.948 81.911 210.482 83.5366 210.482 86.113L210.481 96.8933ZM227 62.5106C227 63.6599 226.168 64.5475 225.01 64.5475 223.871 64.5475 222.993 63.6316 222.993 62.5106 222.993 61.3805 223.871 60.4555 225.01 60.4555 226.131 60.4555 227 61.3805 227 62.5106ZM223.375 62.5106C223.375 63.4352 224.085 64.1924 225.01 64.1924 225.954 64.1924 226.636 63.4638 226.636 62.5106 226.636 61.5769 225.926 60.8102 225.01 60.8102 224.085 60.8102 223.375 61.5769 223.375 62.5106ZM224.225 61.3992 225.057 61.3992C225.366 61.3992 225.86 61.4926 225.86 62.0342 225.86 62.4454 225.562 62.5949 225.291 62.641L226.001 63.5847 225.533 63.5847 224.852 62.6597 224.637 62.6597 224.637 63.5847 224.225 63.5847 224.225 61.3992ZM224.637 61.7447 224.637 62.3329 225.038 62.3329C225.253 62.3329 225.44 62.2955 225.44 62.0342 225.44 61.7821 225.244 61.7447 225.038 61.7447L224.637 61.7447Z" fill="#1A3673" fill-rule="nonzero" fill-opacity="1" transform="matrix(1 0 0 1.00489 775 108.037)"/></g></g></g></g></g></svg>